<svg id="SVGDoc" width="24" height="24" xmlns="http://www.w3.org/2000/svg" version="1.1" xmlns:xlink="http://www.w3.org/1999/xlink" xmlns:avocode="https://avocode.com/" viewBox="0 0 24 24"><defs><path d="M206.39997,132.18466h19.19996c2.65095,0 2.40002,-0.24695 2.40002,2.36318v18.90466c0,2.60993 0.25094,2.36298 -2.40002,2.36298h-19.19996c-2.65095,0 -2.40002,0.24695 -2.40002,-2.36298v-18.90466c0,-2.61013 -0.25094,-2.36318 2.40002,-2.36318zM205.01249,154.97759h21.975v-21.98638h-21.975zM216.84989,148.96424v1.99158h-1.75883v-1.99158zM212.56427,140.4442c0.17839,-0.49841 0.43006,-1.0424 0.76421,-1.41046c0.33382,-0.36796 0.64639,-0.67395 1.12995,-0.87797c0.48363,-0.20363 0.99137,-0.30569 1.59021,-0.30569c0.54112,0 1.03338,0.03939 1.47679,0.19223c0.44317,0.15314 0.90099,0.5046 1.22342,0.79359c0.32234,0.28869 0.59355,0.67974 0.77211,1.09839c0.17839,0.41924 0.23425,0.90056 0.23425,1.44406c0,0.35126 -0.14737,0.6655 -0.23368,0.9428c-0.08639,0.27779 -0.02972,0.52965 -0.16789,0.75616c-0.13817,0.22642 -0.19215,0.43604 -0.37054,0.62837c-0.17872,0.19282 -0.43511,0.37965 -0.61912,0.56069c-0.18433,0.16994 -0.447,0.34282 -0.62539,0.51825c-0.17864,0.17563 -0.17342,0.36266 -0.31729,0.56049c-0.14411,0.19852 -0.259,0.41364 -0.34546,0.64566c-0.08631,0.23231 -0.12954,0.57798 -0.12954,0.87207v0.66255h-1.74231v-0.88081c0.02288,-0.47543 0.13304,-0.89673 0.28847,-1.231c0.15543,-0.33378 0.32869,-0.61471 0.55325,-0.87531c0.21625,-0.25088 1.13858,-1.14711 1.36159,-1.40211c0.51018,-0.58318 0.83732,-0.9594 0.78619,-1.89355c-0.04625,-0.62287 -0.12132,-1.11008 -0.48404,-1.46095c-0.36273,-0.35097 -1.039,-0.52267 -1.6608,-0.52267c-0.41459,0 -0.62156,0.05324 -0.92086,0.20019c-0.29971,0.14744 -0.48754,0.36217 -0.68889,0.61118c-0.2016,0.2493 -0.3484,0.54369 -0.44048,0.88337c-0.09225,0.33967 -0.13817,0.61982 -0.13817,1.01617h-1.50896c-0.01156,-0.57778 0.03436,-1.02727 0.21299,-1.52568z" id="Path-0"/></defs><desc>Generated with Avocode.</desc><g transform="matrix(1,0,0,1,-204,-132)"><g><title>Ask</title><use xlink:href="#Path-0" fill="#c7cdd9" fill-opacity="1"/></g></g></svg>