<svg id="SVGDoc" width="21" height="24" xmlns="http://www.w3.org/2000/svg" version="1.1" xmlns:xlink="http://www.w3.org/1999/xlink" xmlns:avocode="https://avocode.com/" viewBox="0 0 21 24"><defs><path d="M215.50003,207.00016h-8.00008c-0.82715,0 -1.49992,-0.67306 -1.49992,-1.50024v-20.99997c0,-0.82699 0.67277,-1.49995 1.49992,-1.49995h8.00008c0.82706,0 1.49992,0.67296 1.49992,1.49995l0,4.50014h8.5c0.82715,0 1.50008,0.67296 1.50008,1.49995v14.99988c0,0.82718 -0.67294,1.50024 -1.50008,1.50024h-9.87575v-0.00509c-0.04095,0.00337 -0.08236,0.00509 -0.12417,0.00509zM207.49995,184.00007c-0.27585,0 -0.49992,0.22416 -0.49992,0.49988v20.99997c0,0.27553 0.22407,0.50018 0.49992,0.50018h8.00008c0.27585,0 0.49992,-0.22465 0.49992,-0.50018v-20.99997c0,-0.27573 -0.22407,-0.49988 -0.49992,-0.49988zM213.00003,189.99986h-3.00008v-2.9997h3.00008zM213.00003,196.50003h-3.00008v-2.9999h3.00008zM213.00003,203.0001h-3.00008v-3.00019h3.00008zM217.50003,189.99986c-0.27593,0 -0.50008,0.22426 -0.50008,0.50018v14.99988c0,0.27553 0.22415,0.50018 0.50008,0.50018h7.99992c0.27593,0 0.50008,-0.22465 0.50008,-0.50018v-14.99988c0,-0.27592 -0.22415,-0.50018 -0.50008,-0.50018zM222.99995,196.50003h-2.99992v-2.9999h2.99992zM222.99995,203.0001h-2.99992v-3.00019h2.99992z" id="Path-0"/></defs><desc>Generated with Avocode.</desc><g transform="matrix(1,0,0,1,-206,-183)"><g><title>Companies</title><use xlink:href="#Path-0" fill="#c7cdd9" fill-opacity="1"/></g></g></svg>