<svg id="SVGDoc" width="24" height="23" xmlns="http://www.w3.org/2000/svg" version="1.1" xmlns:xlink="http://www.w3.org/1999/xlink" xmlns:avocode="https://avocode.com/" viewBox="0 0 24 23"><defs><path d="M222.9993,95.40733v8.9103c0,0.37278 -0.30305,0.68259 -0.66919,0.68259h-4.63157c-0.39147,0 -0.69451,-0.30981 -0.69451,-0.68259v-4.19681h-3.99251v4.19681c0,0.37278 -0.30305,0.68259 -0.66911,0.68259h-4.69533c-0.36615,0 -0.66911,-0.30981 -0.66911,-0.68259v-8.99399c0,-0.37278 0.23832,-0.61668 0.60438,-0.61668c0.39163,0 0.39383,0.2439 0.39383,0.61668v8.6552h3.9943v-4.35132c0,-0.37022 0.31542,-0.69369 0.70705,-0.69369h4.65567c0.36631,0 0.66935,0.32347 0.66935,0.69369v4.35132h3.98339v-8.57151c0,-0.40028 0.18987,-0.70764 0.58134,-0.70764c0.36606,0 0.43201,0.30736 0.43201,0.70764zM226.57176,94.60196c-0.13907,0.11493 -0.15397,0.04587 -0.34335,0.04587c-0.2147,0 -0.429,-0.16728 -0.54209,-0.28241l-10.68384,-11.31729l-10.2717,10.96976c-0.27227,0.27691 -0.83398,0.85243 -1.08639,0.55646c-0.29034,-0.2552 -0.72708,-0.52749 -0.45465,-0.80439l11.35149,-11.55373c0.13882,-0.13978 0.30313,-0.21934 0.49243,-0.21934c0.16414,0 0.32877,0.07672 0.46719,0.21934l4.47663,4.57862v-2.9776c0,-0.39753 0.16602,-0.59418 0.53241,-0.59418c0.39147,0 0.50016,0.17524 0.50016,0.57267v4.1976l5.86777,5.85343c0.27145,0.27946 -0.05341,0.49733 -0.30606,0.75518z" id="Path-0"/></defs><desc>Generated with Avocode.</desc><g transform="matrix(1,0,0,1,-203,-82)"><g><title>Feed</title><use xlink:href="#Path-0" fill="#c7cdd9" fill-opacity="1"/></g></g></svg>