<svg id="SVGDoc" width="19" height="24" xmlns="http://www.w3.org/2000/svg" version="1.1" xmlns:xlink="http://www.w3.org/1999/xlink" xmlns:avocode="https://avocode.com/" viewBox="0 0 19 24"><defs><path d="M224.49995,258.00008h-16c-0.82715,0 -1.49992,-0.67306 -1.49992,-1.49995v-20.99997c0,-0.82728 0.67277,-1.50005 1.49992,-1.50005h16c0.82715,0 1.50008,0.67277 1.50008,1.50005v20.99997c0,0.82689 -0.67294,1.49995 -1.50008,1.49995zM208.49995,235.00008c-0.27585,0 -0.49992,0.22406 -0.49992,0.50008v20.99997c0,0.27524 0.22407,0.49998 0.49992,0.49998h16c0.27593,0 0.50008,-0.22475 0.50008,-0.49998v-20.99997c0,-0.27602 -0.22415,-0.50008 -0.50008,-0.50008zM222.99995,242.99991h-13v-1.99973h13zM222.99995,239.00005h-8.99992v-1.99993h8.99992zM222.99995,254.99989h-13v-1.99993h13zM222.99995,251.00022h-13v-2.00023h13zM222.99995,247.00016h-13v-2.00003h13z" id="Path-0"/></defs><desc>Generated with Avocode.</desc><g transform="matrix(1,0,0,1,-207,-234)"><g><title>Services</title><use xlink:href="#Path-0" fill="#c7cdd9" fill-opacity="1"/></g></g></svg>