<svg width="26" height="22" xmlns="http://www.w3.org/2000/svg" xmlns:xlink="http://www.w3.org/1999/xlink"><defs><path d="M855 43.004s-2.7.01-5.014.01c.01.96.008 2.472-.013 2.61-.04.26-.684.51-.959.292-.696-.578-1.015-1.197-2.076-2.912H842c-.827 0-.985-.32-.985-1.152v-.868c.242.01 1.033.028 1.033.028l-.034.977 5.923.011L849 44v-1.994h6v-8.987h-6.02v-.984h5.522c.827 0 1.497.331 1.497 1.163v8.654c0 .831-.172 1.152-.999 1.152zm-13.985-2.025h-1.609c-.692.61-1.972 1.73-2.669 2.308-.275.22-.887-.032-.927-.29-.021-.14-.024-1.059-.013-2.018h-4.672c-.827 0-1.123-.3-1.123-1.132V25.1c0-.832.14-1.101.967-1.101h16.983c.826 0 1.028.238 1.028 1.07v14.155c0 .832-.764 1.756-1.591 1.756h-6.374v.005c-.083-.003-.103-.005 0-.005zm6.94-1l.035-14.953-16.987.01v14.943h5.945l.012 1.961 2.02-1.96zm-13.298-4.396v-.043c0-.284.228-.546.51-.546h9.066c.282 0 .511.28.511.563v.026c0 .284-.229.443-.51.443h-9.066c-.283 0-.511-.16-.511-.443zm7.33-5.55h-6.82c-.282 0-.51-.16-.51-.443v-.044c0-.283.228-.545.51-.545h6.82c.282 0 .511.28.511.563v.026c0 .284-.229.443-.511.443zm-6.82 1.98h4.574c.282 0 .51.249.51.532v.026c0 .284-.228.443-.51.443h-4.573c-.283 0-.511-.16-.511-.443v-.044c0-.283.228-.514.51-.514z" id="a"/></defs><use xlink:href="#a" fill="#fff" transform="translate(-830 -24)"/></svg>