<svg id="SVGDoc" width="26" height="22" xmlns="http://www.w3.org/2000/svg" version="1.1" xmlns:xlink="http://www.w3.org/1999/xlink" xmlns:avocode="https://avocode.com/" viewBox="0 0 26 22"><defs><path d="M854.99996,43.00442c0,0 -2.69964,0.01012 -5.01368,0.01012c0.01042,0.9592 0.00814,2.47162 -0.01311,2.60993c-0.03981,0.25903 -0.68376,0.51 -0.9588,0.29135c-0.69671,-0.57758 -1.0149,-1.19662 -2.07686,-2.91139c-0.16341,0 -0.77675,0 -0.93755,0c-2.62416,0 -4,0 -4,0c-0.82706,0 -0.98477,-0.32101 -0.98477,-1.15281v-0.86716c0.24149,0.00943 1.03281,0.0279 1.03281,0.0279l-0.03379,0.97688l5.92322,0.01071l1.06253,1.99993v-1.99394h6v-8.98663h-6.01987v-0.98415h5.5219c0.82698,0 1.49739,0.33113 1.49739,1.16283v8.65363c0,0.8318 -0.17245,1.15281 -0.99943,1.15281zM841.01519,40.97895c-0.40156,0 -0.78188,0 -1.12303,0c-0.16089,0 -0.32316,0 -0.4864,0c-0.69215,0.61039 -1.97167,1.73088 -2.66829,2.30837c-0.27512,0.21875 -0.8878,-0.03232 -0.92754,-0.29125c-0.02125,-0.1384 -0.02369,-1.05792 -0.01311,-2.01712c-2.3142,0 -4.67204,0 -4.67204,0c-0.82698,0 -1.12237,-0.29979 -1.12237,-1.13169v-14.74871c0,-0.8318 0.13915,-1.10055 0.96613,-1.10055h16.98298c0.82698,0 1.02858,0.23752 1.02858,1.06931v14.156c0,0.8316 -0.76421,1.75564 -1.59111,1.75564c0,0 -3.68686,0 -6.3738,0v0.0055c-0.08329,-0.00324 -0.10291,-0.0055 0,-0.0055zM847.95559,39.97928l0.03403,-14.95351l-16.98632,0.00943v14.94408h5.94471l0.01172,1.96074l2.01978,-1.96074zM834.6567,35.58286v-0.04332c0,-0.28388 0.22879,-0.54517 0.51099,-0.54517h9.06538c0.2822,0 0.51091,0.27917 0.51091,0.56305v0.02544c0,0.28388 -0.22871,0.44291 -0.51091,0.44291h-9.06538c-0.2822,0 -0.51099,-0.15903 -0.51099,-0.44291zM841.98693,30.03276h-6.81925c-0.2822,0 -0.51099,-0.15913 -0.51099,-0.44281v-0.04352c0,-0.28378 0.22879,-0.54507 0.51099,-0.54507h6.81925c0.2822,0 0.51107,0.27926 0.51107,0.56295v0.02564c0,0.28368 -0.22887,0.44281 -0.51107,0.44281zM835.16769,32.01344h4.57311c0.2822,0 0.51107,0.24813 0.51107,0.53201v0.02534c0,0.28378 -0.22887,0.44291 -0.51107,0.44291h-4.57311c-0.2822,0 -0.51099,-0.15913 -0.51099,-0.44291v-0.04342c0,-0.28378 0.22879,-0.51393 0.51099,-0.51393z" id="Path-0"/></defs><desc>Generated with Avocode.</desc><g transform="matrix(1,0,0,1,-830,-24)"><g><title>Chat</title><use xlink:href="#Path-0" fill="#ffffff" fill-opacity="1"/></g></g></svg>