<svg width="24" height="24" xmlns="http://www.w3.org/2000/svg" xmlns:xlink="http://www.w3.org/1999/xlink"><defs><path d="M206.4 132.185h19.2c2.65 0 2.4-.247 2.4 2.363v18.905c0 2.61.25 2.362-2.4 2.362h-19.2c-2.651 0-2.4.247-2.4-2.362v-18.905c0-2.61-.251-2.363 2.4-2.363zm-1.388 22.793h21.975V132.99h-21.975zm11.838-6.014v1.992h-1.759v-1.992zm-4.286-8.52c.179-.498.43-1.042.764-1.41.334-.368.647-.674 1.13-.878a3.98 3.98 0 0 1 1.59-.306c.542 0 1.034.04 1.477.192.444.153.901.505 1.224.794.322.289.593.68.772 1.098.178.42.234.9.234 1.444 0 .352-.147.666-.233.943-.087.278-.03.53-.168.756-.139.227-.193.436-.37.629-.18.192-.436.38-.62.56-.184.17-.447.343-.625.519-.18.175-.174.362-.318.56a2.695 2.695 0 0 0-.345.646c-.086.232-.13.578-.13.872v.662h-1.742v-.88c.023-.476.133-.897.288-1.231.156-.334.33-.615.554-.876.216-.25 1.138-1.147 1.361-1.402.51-.583.838-.96.786-1.893-.046-.623-.12-1.11-.484-1.461-.362-.351-1.039-.523-1.66-.523-.415 0-.622.053-.921.2-.3.148-.488.362-.69.611-.2.25-.347.544-.44.884-.092.34-.138.62-.138 1.016h-1.509c-.011-.578.035-1.027.213-1.526z" id="a"/></defs><use xlink:href="#a" fill="#c7cdd9" transform="translate(-204 -132)"/></svg>