<svg xmlns="http://www.w3.org/2000/svg" width="21" height="24"><path fill="#87B446" d="M9.5 24h-8C.673 24 0 23.327 0 22.5v-21C0 .673.673 0 1.5 0h8c.827 0 1.5.673 1.5 1.5v21c0 .827-.673 1.5-1.5 1.5zm-8-23a.5.5 0 0 0-.5.5v21a.5.5 0 0 0 .5.5h8a.5.5 0 0 0 .5-.5v-21a.5.5 0 0 0-.5-.5h-8z"/><path fill="#87B446" d="M7 7H4V4h3v3zm0 6.5H4v-3h3v3zM7 20H4v-3h3v3zm12.5 4h-8c-.827 0-1.5-.673-1.5-1.5v-15c0-.827.673-1.5 1.5-1.5h8c.827 0 1.5.673 1.5 1.5v15c0 .827-.673 1.5-1.5 1.5zm-8-17a.5.5 0 0 0-.5.5v15a.5.5 0 0 0 .5.5h8a.5.5 0 0 0 .5-.5v-15a.5.5 0 0 0-.5-.5h-8z"/><path fill="#87B446" d="M17 13.5h-3v-3h3v3zm0 6.5h-3v-3h3v3zm-7.376 3.419H11.5V24H9.624v-.581zm.999-16.829H12V6h-1.377v.59z"/></svg>