<svg width="21" height="24" xmlns="http://www.w3.org/2000/svg" xmlns:xlink="http://www.w3.org/1999/xlink"><defs><path d="M215.5 207h-8c-.827 0-1.5-.673-1.5-1.5v-21c0-.827.673-1.5 1.5-1.5h8c.827 0 1.5.673 1.5 1.5v4.5h8.5c.827 0 1.5.673 1.5 1.5v15c0 .827-.673 1.5-1.5 1.5h-9.876v-.005c-.04.003-.082.005-.124.005zm-8-23a.5.5 0 0 0-.5.5v21a.5.5 0 0 0 .5.5h8a.5.5 0 0 0 .5-.5v-21a.5.5 0 0 0-.5-.5zm5.5 6h-3v-3h3zm0 6.5h-3v-3h3zm0 6.5h-3v-3h3zm4.5-13a.5.5 0 0 0-.5.5v15a.5.5 0 0 0 .5.5h8a.5.5 0 0 0 .5-.5v-15a.5.5 0 0 0-.5-.5zm5.5 6.5h-3v-3h3zm0 6.5h-3v-3h3z" id="a"/></defs><use xlink:href="#a" fill="#c7cdd9" transform="translate(-206 -183)"/></svg>