<svg xmlns="http://www.w3.org/2000/svg" width="23.876" height="23.003"><path fill="#87B446" d="M19.463 12.703c-.391 0-.581.307-.581.708v8.572h-3.983V17.63c0-.37-.303-.694-.669-.694H9.574a.708.708 0 0 0-.707.694v4.352H4.872v-8.655c0-.373-.002-.617-.394-.617-.366 0-.604.244-.604.617v8.994c0 .373.303.683.669.683h4.695c.366 0 .669-.31.669-.683v-4.197H13.9v4.197c0 .373.303.683.695.683h4.632c.366 0 .669-.31.669-.683v-8.91c0-.401-.066-.708-.433-.708z"/><path fill="#87B446" d="M23.774 11.85l-5.868-5.854V1.799c0-.397-.109-.573-.5-.573-.366 0-.532.197-.532.594v2.978L12.397.219A.66.66 0 0 0 11.93 0a.682.682 0 0 0-.492.219L.086 11.773c-.272.277.164.549.455.804.252.296.814-.28 1.086-.556l10.272-10.97 10.684 11.317c.113.115.327.282.542.282.189 0 .204.069.343-.046.253-.257.577-.475.306-.754z"/></svg>