<svg width="24" height="23" xmlns="http://www.w3.org/2000/svg" xmlns:xlink="http://www.w3.org/1999/xlink"><defs><path d="M223 95.407v8.91a.68.68 0 0 1-.67.683h-4.63a.686.686 0 0 1-.695-.682v-4.197h-3.992v4.197a.68.68 0 0 1-.67.682h-4.695a.68.68 0 0 1-.669-.682v-8.994c0-.373.238-.617.604-.617.392 0 .394.244.394.617v8.655h3.994v-4.351a.71.71 0 0 1 .708-.694h4.655c.367 0 .67.323.67.694v4.35h3.983v-8.57c0-.4.19-.708.581-.708.366 0 .432.307.432.707zm3.572-.805c-.14.115-.154.046-.344.046-.214 0-.429-.167-.542-.283l-10.684-11.317-10.271 10.97c-.272.277-.834.852-1.087.556-.29-.255-.727-.527-.454-.804l11.351-11.554a.681.681 0 0 1 .493-.22c.164 0 .328.078.467.22l4.476 4.579v-2.978c0-.397.167-.594.533-.594.391 0 .5.175.5.573v4.197l5.868 5.854c.271.28-.054.497-.306.755z" id="a"/></defs><use xlink:href="#a" fill="#c7cdd9" transform="translate(-203 -82)"/></svg>